<svg xmlns="http://www.w3.org/2000/svg" xmlns:xlink="http://www.w3.org/1999/xlink" width="500" zoomAndPan="magnify" viewBox="0 0 375 374.999991" height="500" preserveAspectRatio="xMidYMid meet" version="1.0"><defs><g/><clipPath id="b9acdf7cc6"><path d="M 132 103 L 250 103 L 250 246 L 132 246 Z M 132 103 " clip-rule="nonzero"/></clipPath><clipPath id="6402bad9cf"><path d="M 74.273438 144.25 L 205.636719 62.921875 L 271.566406 169.417969 L 140.203125 250.742188 Z M 74.273438 144.25 " clip-rule="nonzero"/></clipPath><clipPath id="7d0c62f041"><path d="M 74.273438 144.25 L 205.636719 62.921875 L 271.566406 169.417969 L 140.203125 250.742188 Z M 74.273438 144.25 " clip-rule="nonzero"/></clipPath><clipPath id="c6fc1f8c46"><path d="M 74.273438 144.25 L 205.636719 62.921875 L 271.566406 169.417969 L 140.203125 250.742188 Z M 74.273438 144.25 " clip-rule="nonzero"/></clipPath><clipPath id="841ee3ce14"><rect x="0" width="74" y="0" height="117"/></clipPath><clipPath id="04a7213007"><rect x="0" width="93" y="0" height="139"/></clipPath><clipPath id="607c81fda2"><rect x="0" width="94" y="0" height="139"/></clipPath><clipPath id="994f9bb5ac"><rect x="0" width="78" y="0" height="129"/></clipPath></defs><rect x="-37.5" width="450" fill="#ffffff" y="-37.499999" height="449.999989" fill-opacity="1"/><rect x="-37.5" width="450" fill="#ffd6d6" y="-37.499999" height="449.999989" fill-opacity="1"/><g clip-path="url(#b9acdf7cc6)"><g clip-path="url(#6402bad9cf)"><g clip-path="url(#7d0c62f041)"><g clip-path="url(#c6fc1f8c46)"><path fill="#ffffff" d="M 183.339844 223.839844 C 167.796875 233.460938 152.066406 240.65625 137.382812 245.269531 C 146.933594 241.199219 156.710938 236.136719 166.410156 230.132812 C 215.035156 200.027344 243.296875 157.597656 229.527344 135.359375 C 220.164062 120.230469 193.757812 118.351562 162.507812 128.167969 C 200.828125 111.804688 235.433594 111.265625 246.460938 129.074219 C 260.222656 151.308594 231.960938 193.738281 183.339844 223.839844 Z M 132.246094 137.664062 L 132.046875 137.335938 C 151.457031 125.320312 150.90625 121.285156 139.914062 103.53125 L 140.242188 103.328125 C 151.230469 121.082031 154.605469 123.371094 174.019531 111.351562 L 174.222656 111.679688 C 154.808594 123.695312 155.34375 127.726562 166.335938 145.480469 L 166.011719 145.683594 C 155.019531 127.929688 151.660156 125.644531 132.246094 137.664062 " fill-opacity="1" fill-rule="evenodd"/></g></g></g></g><g transform="matrix(1, 0, 0, 1, 147, 166)"><g clip-path="url(#841ee3ce14)"><g fill="#ffffff" fill-opacity="1"><g transform="translate(16.034032, 84.556736)"><g><path d="M 31.445312 3.523438 C 31.609375 3.496094 31.742188 3.464844 31.847656 3.425781 L 31.855469 3.421875 C 31.796875 3.453125 31.730469 3.5 31.65625 3.554688 C 31.203125 3.90625 30.871094 4.402344 30.65625 5.039062 C 30.472656 5.59375 30.421875 6.164062 30.503906 6.746094 C 30.582031 7.300781 30.773438 7.808594 31.078125 8.261719 L 34.773438 5.789062 L 34.175781 10.195312 C 33.269531 10.074219 32.445312 9.75 31.703125 9.226562 C 31.0625 8.773438 30.523438 8.195312 30.09375 7.5 C 29.566406 6.640625 29.199219 5.585938 29.003906 4.328125 C 28.710938 2.484375 28.742188 -0.00390625 29.09375 -3.148438 C 29.375 -5.6875 29.839844 -8.496094 30.488281 -11.574219 C 31.078125 -14.375 31.714844 -16.921875 32.394531 -19.210938 C 33.179688 -21.847656 33.914062 -23.652344 34.597656 -24.632812 L 38.242188 -22.082031 L 33.8125 -22.472656 C 33.820312 -22.585938 33.828125 -22.648438 33.828125 -22.660156 C 33.824219 -22.550781 33.832031 -22.421875 33.855469 -22.28125 C 33.886719 -22.082031 33.9375 -21.9375 34.003906 -21.847656 C 33.949219 -21.917969 33.863281 -21.996094 33.734375 -22.082031 C 33.597656 -22.175781 33.476562 -22.242188 33.367188 -22.277344 C 33.53125 -22.222656 33.785156 -22.222656 34.125 -22.277344 C 34.472656 -22.332031 34.816406 -22.453125 35.15625 -22.636719 C 35.886719 -23.035156 36.433594 -23.625 36.792969 -24.40625 C 33.808594 -18.222656 30.820312 -13.339844 27.828125 -9.753906 C 23.992188 -5.148438 20.011719 -2.523438 15.890625 -1.871094 C 14.378906 -1.632812 12.96875 -1.664062 11.652344 -1.972656 C 10.21875 -2.304688 8.960938 -2.941406 7.871094 -3.882812 C 6.042969 -5.464844 4.894531 -7.722656 4.433594 -10.652344 C 3.863281 -14.265625 4.300781 -18.449219 5.746094 -23.199219 C 7.007812 -27.347656 8.886719 -31.488281 11.375 -35.613281 C 13.851562 -39.71875 16.539062 -43.15625 19.433594 -45.925781 C 22.875 -49.214844 26.199219 -51.117188 29.414062 -51.625 C 31.679688 -51.980469 33.609375 -51.601562 35.203125 -50.484375 C 36.878906 -49.308594 37.90625 -47.515625 38.285156 -45.109375 C 39.046875 -40.289062 37.097656 -34.898438 32.429688 -28.933594 L 28.929688 -31.675781 L 31.078125 -35.566406 C 30.902344 -35.664062 30.757812 -35.71875 30.640625 -35.730469 C 30.703125 -35.722656 30.8125 -35.730469 30.957031 -35.753906 C 31.453125 -35.832031 31.992188 -36.046875 32.578125 -36.394531 C 33.265625 -36.804688 33.863281 -37.320312 34.378906 -37.945312 C 35.527344 -39.332031 35.964844 -40.890625 35.691406 -42.617188 C 35.464844 -44.054688 34.605469 -45.15625 33.117188 -45.929688 C 32.320312 -46.34375 31.421875 -46.625 30.425781 -46.773438 C 29.414062 -46.921875 28.417969 -46.917969 27.433594 -46.761719 C 25.023438 -46.382812 22.449219 -45.03125 19.707031 -42.714844 C 16.914062 -40.355469 14.355469 -37.339844 12.027344 -33.667969 C 9.71875 -30.023438 8.003906 -26.320312 6.890625 -22.554688 C 5.789062 -18.828125 5.449219 -15.628906 5.871094 -12.957031 C 6.058594 -11.765625 6.441406 -10.664062 7.023438 -9.652344 C 7.578125 -8.695312 8.265625 -7.882812 9.089844 -7.21875 C 10.746094 -5.882812 12.566406 -5.375 14.546875 -5.6875 C 16.128906 -5.9375 17.679688 -6.765625 19.195312 -8.167969 C 20.785156 -9.636719 22.429688 -11.8125 24.128906 -14.695312 L 25.679688 -17.324219 L 34.089844 -15.925781 L 32.683594 -11.113281 C 30.652344 -4.167969 29.816406 0.421875 30.167969 2.65625 C 30.242188 3.121094 30.335938 3.382812 30.453125 3.449219 C 30.667969 3.570312 31 3.59375 31.445312 3.523438 Z M 32.835938 12.308594 C 31.75 12.480469 30.675781 12.496094 29.617188 12.355469 C 28.34375 12.1875 27.171875 11.804688 26.105469 11.207031 C 24.84375 10.5 23.808594 9.539062 23 8.328125 C 22.179688 7.097656 21.640625 5.671875 21.382812 4.046875 C 21.039062 1.859375 21.207031 -1.03125 21.894531 -4.621094 C 22.363281 -7.082031 23.117188 -10.078125 24.148438 -13.609375 L 28.417969 -12.363281 L 27.6875 -7.976562 L 27.226562 -8.050781 L 27.957031 -12.4375 L 31.789062 -10.179688 C 29.648438 -6.546875 27.464844 -3.699219 25.234375 -1.640625 C 22.398438 0.988281 19.296875 2.566406 15.933594 3.097656 C 13.671875 3.453125 11.445312 3.320312 9.246094 2.695312 C 7.160156 2.101562 5.25 1.105469 3.515625 -0.289062 C 1.820312 -1.652344 0.421875 -3.296875 -0.683594 -5.222656 C -1.8125 -7.183594 -2.554688 -9.296875 -2.914062 -11.570312 C -3.546875 -15.5625 -3.121094 -20.066406 -1.636719 -25.078125 C -0.289062 -29.636719 1.761719 -34.085938 4.515625 -38.429688 C 7.328125 -42.867188 10.480469 -46.558594 13.964844 -49.503906 C 17.972656 -52.894531 22 -54.90625 26.046875 -55.546875 C 27.925781 -55.84375 29.816406 -55.851562 31.722656 -55.570312 C 33.703125 -55.277344 35.535156 -54.695312 37.214844 -53.824219 C 39.101562 -52.84375 40.660156 -51.570312 41.886719 -50 C 43.257812 -48.246094 44.121094 -46.246094 44.476562 -44.007812 C 44.828125 -41.765625 44.683594 -39.582031 44.039062 -37.460938 C 43.464844 -35.574219 42.53125 -33.84375 41.234375 -32.277344 C 40.066406 -30.867188 38.699219 -29.691406 37.136719 -28.757812 C 35.566406 -27.824219 33.96875 -27.226562 32.34375 -26.96875 C 30.222656 -26.632812 28.367188 -26.90625 26.78125 -27.78125 L 22.210938 -30.304688 L 25.425781 -34.414062 C 26.882812 -36.273438 27.953125 -37.96875 28.644531 -39.496094 C 29.398438 -41.160156 29.683594 -42.570312 29.503906 -43.71875 C 29.488281 -43.8125 29.472656 -43.882812 29.457031 -43.9375 C 29.460938 -43.925781 29.472656 -43.898438 29.492188 -43.863281 C 29.621094 -43.613281 29.820312 -43.394531 30.09375 -43.203125 C 30.355469 -43.019531 30.625 -42.90625 30.890625 -42.867188 C 30.933594 -42.859375 30.960938 -42.859375 30.976562 -42.859375 C 30.933594 -42.859375 30.875 -42.851562 30.800781 -42.839844 C 30.214844 -42.746094 29.511719 -42.453125 28.6875 -41.953125 C 27.710938 -41.363281 26.671875 -40.546875 25.582031 -39.5 C 23.257812 -37.277344 21.058594 -34.449219 18.988281 -31.019531 C 16.878906 -27.523438 15.300781 -24.054688 14.253906 -20.609375 C 13.203125 -17.164062 12.859375 -14.304688 13.21875 -12.039062 C 13.296875 -11.546875 13.402344 -11.15625 13.542969 -10.855469 C 13.605469 -10.722656 13.65625 -10.636719 13.691406 -10.609375 C 13.679688 -10.617188 13.664062 -10.628906 13.648438 -10.636719 C 13.644531 -10.640625 13.640625 -10.640625 13.636719 -10.640625 C 13.644531 -10.636719 13.65625 -10.636719 13.667969 -10.632812 C 13.855469 -10.589844 14.132812 -10.597656 14.503906 -10.65625 C 16.421875 -10.957031 18.585938 -12.554688 21 -15.449219 C 23.523438 -18.472656 26.09375 -22.699219 28.714844 -28.125 C 29.175781 -29.128906 29.902344 -29.902344 30.894531 -30.441406 C 31.457031 -30.75 32.070312 -30.957031 32.738281 -31.0625 C 33.804688 -31.230469 34.933594 -31.121094 36.121094 -30.730469 C 37.042969 -30.433594 37.925781 -29.992188 38.765625 -29.417969 C 39.6875 -28.785156 40.464844 -28.050781 41.097656 -27.214844 C 41.925781 -26.117188 42.441406 -24.933594 42.640625 -23.667969 C 42.726562 -23.113281 42.738281 -22.457031 42.671875 -21.691406 L 42.566406 -20.507812 L 41.882812 -19.535156 C 41.925781 -19.589844 41.953125 -19.636719 41.972656 -19.675781 C 41.964844 -19.65625 41.949219 -19.628906 41.929688 -19.585938 C 41.859375 -19.433594 41.773438 -19.230469 41.679688 -18.976562 C 41.449219 -18.375 41.195312 -17.605469 40.917969 -16.675781 C 40.304688 -14.617188 39.730469 -12.308594 39.191406 -9.742188 C 38.601562 -6.945312 38.183594 -4.417969 37.929688 -2.160156 C 37.667969 0.1875 37.621094 1.886719 37.785156 2.9375 C 37.804688 3.054688 37.820312 3.136719 37.835938 3.179688 C 37.804688 3.082031 37.746094 2.964844 37.660156 2.824219 C 37.457031 2.496094 37.179688 2.207031 36.835938 1.960938 C 36.390625 1.648438 35.902344 1.457031 35.371094 1.382812 L 37.359375 1.652344 L 38.472656 3.320312 C 38.917969 3.988281 39.199219 4.714844 39.308594 5.496094 C 39.421875 6.296875 39.351562 7.085938 39.089844 7.859375 C 38.734375 8.925781 38.074219 9.832031 37.109375 10.582031 C 35.976562 11.460938 34.550781 12.035156 32.835938 12.308594 Z M 32.835938 12.308594 "/></g></g></g><g fill="#ef97be" fill-opacity="1"><g transform="translate(16.034032, 84.556736)"><g><path d="M 32.140625 7.914062 C 34.023438 7.617188 35.359375 6.664062 34.773438 5.789062 C 34.015625 5.6875 33.601562 4.9375 33.394531 3.632812 C 32.421875 -2.523438 36.605469 -19.746094 38.242188 -22.082031 C 38.265625 -22.382812 38.292969 -22.683594 38.25 -22.972656 C 37.894531 -25.21875 34.878906 -26.898438 33.433594 -26.667969 C 33.140625 -26.621094 32.863281 -26.503906 32.753906 -26.265625 C 27.550781 -15.492188 21.574219 -7.269531 15.199219 -6.261719 C 11.359375 -5.65625 9.386719 -7.796875 8.824219 -11.34375 C 6.890625 -23.585938 20.617188 -45.730469 30.109375 -47.230469 C 32.207031 -47.5625 33.515625 -46.804688 33.894531 -44.414062 C 34.605469 -39.921875 31.644531 -35.148438 28.929688 -31.675781 C 29.660156 -31.269531 30.636719 -31.203125 31.652344 -31.363281 C 35.78125 -32.015625 41.125 -36.71875 40.082031 -43.3125 C 39.109375 -49.472656 32.390625 -52.046875 26.742188 -51.15625 C 13.339844 -49.035156 -0.6875 -25.953125 1.476562 -12.261719 C 2.589844 -5.234375 8.648438 -0.253906 15.238281 -1.292969 C 20.457031 -2.117188 24.386719 -6.378906 27.957031 -12.4375 L 28.417969 -12.363281 C 26.777344 -6.757812 25.191406 -0.34375 25.777344 3.351562 C 26.429688 7.480469 29.675781 8.304688 32.140625 7.914062 Z M 32.140625 7.914062 "/></g></g></g></g></g><g transform="matrix(1, 0, 0, 1, 132, 106)"><g clip-path="url(#04a7213007)"><g fill="#ffffff" fill-opacity="1"><g transform="translate(14.320489, 102.139619)"><g><path d="M 9.519531 -0.277344 C 9.128906 -0.214844 8.746094 -0.0664062 8.363281 0.167969 C 7.742188 0.550781 7.28125 1.070312 6.976562 1.730469 L 10.914062 3.539062 L 6.632812 4.214844 C 5.800781 -1.039062 8.53125 -9.523438 14.824219 -21.230469 L 15.683594 -22.828125 L 29.339844 -26.839844 L 42.621094 -30.734375 L 40.980469 -23.539062 C 40.144531 -19.855469 39.550781 -16.671875 39.207031 -13.980469 C 38.867188 -11.328125 38.789062 -9.421875 38.96875 -8.265625 C 39.128906 -7.269531 39.5625 -6.519531 40.273438 -6.015625 C 40.882812 -5.585938 41.5 -5.417969 42.125 -5.515625 C 42.449219 -5.566406 42.816406 -5.71875 43.222656 -5.972656 C 43.691406 -6.265625 44.125 -6.636719 44.523438 -7.085938 C 44.875 -7.484375 45.128906 -7.859375 45.28125 -8.210938 C 45.316406 -8.292969 45.335938 -8.34375 45.339844 -8.363281 C 45.316406 -8.230469 45.320312 -8.066406 45.351562 -7.871094 C 45.464844 -7.144531 45.875 -6.523438 46.578125 -6.015625 L 49.125 -9.519531 L 52.304688 -6.570312 C 51.511719 -5.71875 50.519531 -4.9375 49.332031 -4.234375 C 48.066406 -3.484375 46.914062 -3.027344 45.878906 -2.863281 C 45.007812 -2.726562 44.171875 -2.777344 43.367188 -3.023438 C 42.441406 -3.300781 41.644531 -3.804688 40.976562 -4.523438 C 40.121094 -5.457031 39.570312 -6.691406 39.328125 -8.234375 C 39.023438 -10.140625 39.132812 -12.945312 39.644531 -16.644531 C 40.113281 -20.003906 40.859375 -23.804688 41.882812 -28.046875 L 42.511719 -30.644531 L 45.117188 -31.25 C 45.429688 -31.320312 45.882812 -31.429688 46.472656 -31.566406 C 48.722656 -32.09375 50.265625 -32.425781 51.101562 -32.558594 L 51.796875 -32.667969 L 52.488281 -32.550781 C 51.613281 -32.699219 50.777344 -32.546875 49.980469 -32.09375 C 49.222656 -31.664062 48.675781 -31.0625 48.34375 -30.285156 C 48.109375 -29.742188 48.023438 -29.257812 48.089844 -28.835938 C 48.097656 -28.789062 48.105469 -28.753906 48.113281 -28.730469 C 48.113281 -28.738281 48.109375 -28.746094 48.101562 -28.757812 C 48.09375 -28.773438 48.085938 -28.789062 48.078125 -28.800781 C 48.082031 -28.796875 48.085938 -28.792969 48.09375 -28.785156 C 48.191406 -28.675781 48.335938 -28.582031 48.527344 -28.5 C 48.863281 -28.355469 49.210938 -28.308594 49.570312 -28.367188 C 49.234375 -28.3125 48.929688 -28.246094 48.652344 -28.167969 L 41.339844 -26.054688 L 43.257812 -33.425781 C 44.65625 -38.792969 46.238281 -43.910156 48 -48.769531 C 49.914062 -54.035156 51.804688 -58.332031 53.679688 -61.660156 L 53.800781 -61.878906 L 53.949219 -62.082031 C 53.4375 -61.378906 53.253906 -60.582031 53.394531 -59.683594 C 53.453125 -59.320312 53.5625 -59 53.730469 -58.722656 C 53.785156 -58.632812 53.832031 -58.566406 53.871094 -58.523438 C 53.777344 -58.621094 53.617188 -58.734375 53.394531 -58.859375 C 53.128906 -59.011719 52.875 -59.117188 52.632812 -59.183594 C 52.566406 -59.203125 52.515625 -59.210938 52.488281 -59.214844 C 52.554688 -59.207031 52.648438 -59.214844 52.765625 -59.234375 C 52.976562 -59.265625 53.203125 -59.34375 53.445312 -59.464844 C 53.914062 -59.695312 54.304688 -60.027344 54.621094 -60.460938 L 54.4375 -60.210938 L 54.222656 -59.988281 C 53.964844 -59.722656 53.777344 -59.507812 53.65625 -59.34375 L 50.546875 -55.066406 L 46.964844 -58.953125 C 47.175781 -58.722656 47.390625 -58.578125 47.601562 -58.515625 C 47.628906 -58.507812 47.644531 -58.503906 47.652344 -58.503906 C 47.621094 -58.503906 47.582031 -58.5 47.527344 -58.492188 C 47.28125 -58.453125 46.828125 -58.234375 46.175781 -57.832031 C 45.273438 -57.277344 44.230469 -56.484375 43.035156 -55.457031 C 40.566406 -53.320312 37.75 -50.414062 34.585938 -46.738281 C 31.476562 -43.125 28.351562 -39.144531 25.21875 -34.792969 C 22.042969 -30.386719 19.195312 -26.074219 16.675781 -21.851562 L 15.714844 -20.238281 L 13.882812 -19.839844 C 8.992188 -18.769531 5.109375 -18.007812 2.226562 -17.550781 L 1.550781 -21.832031 L 5.054688 -19.28125 C 5.421875 -19.78125 5.632812 -20.285156 5.695312 -20.785156 C 5.710938 -20.925781 5.710938 -21.054688 5.691406 -21.167969 C 5.726562 -20.945312 5.820312 -20.761719 5.972656 -20.625 C 6.097656 -20.511719 6.386719 -20.488281 6.839844 -20.5625 C 7.117188 -20.605469 7.3125 -20.644531 7.417969 -20.679688 L 17.464844 -24.03125 L 12.648438 -14.597656 C 11.105469 -11.578125 9.984375 -8.945312 9.28125 -6.691406 C 8.664062 -4.730469 8.425781 -3.328125 8.554688 -2.492188 C 8.683594 -1.675781 9.027344 -1.042969 9.582031 -0.589844 C 9.761719 -0.445312 9.929688 -0.34375 10.082031 -0.289062 C 10.09375 -0.285156 10.097656 -0.28125 10.101562 -0.28125 C 10.085938 -0.285156 10.066406 -0.289062 10.039062 -0.292969 C 9.890625 -0.3125 9.714844 -0.308594 9.519531 -0.277344 Z M 10.875 8.285156 C 9.707031 8.46875 8.484375 8.335938 7.203125 7.886719 C 6.101562 7.5 5.066406 6.914062 4.105469 6.128906 C 3.066406 5.28125 2.203125 4.277344 1.511719 3.109375 C 0.742188 1.8125 0.238281 0.398438 -0.00390625 -1.140625 C -0.628906 -5.078125 1.015625 -10.878906 4.929688 -18.539062 L 8.789062 -16.570312 L 10.160156 -12.457031 C 9.597656 -12.269531 8.945312 -12.117188 8.195312 -12 C 6.585938 -11.746094 5.070312 -11.824219 3.652344 -12.242188 C 2.3125 -12.636719 1.125 -13.304688 0.0976562 -14.25 C -0.75 -15.03125 -1.4375 -15.953125 -1.96875 -17.019531 C -2.417969 -17.925781 -2.71875 -18.855469 -2.867188 -19.816406 C -2.976562 -20.5 -2.992188 -21.175781 -2.910156 -21.839844 C -2.789062 -22.820312 -2.472656 -23.667969 -1.953125 -24.378906 L -0.898438 -25.832031 L 0.875 -26.113281 C 3.585938 -26.539062 7.304688 -27.273438 12.027344 -28.304688 L 12.957031 -24.074219 L 9.234375 -26.292969 C 11.878906 -30.726562 14.863281 -35.25 18.1875 -39.863281 C 21.464844 -44.414062 24.742188 -48.589844 28.019531 -52.394531 C 35.847656 -61.492188 41.902344 -66.378906 46.175781 -67.054688 C 47.511719 -67.265625 48.792969 -67.195312 50.015625 -66.839844 C 51.351562 -66.453125 52.457031 -65.78125 53.335938 -64.828125 L 50.152344 -61.890625 L 46.644531 -64.4375 C 47.007812 -64.9375 47.460938 -65.464844 48.003906 -66.027344 L 51.113281 -63.007812 L 47.609375 -65.558594 C 48.503906 -66.789062 49.773438 -67.535156 51.410156 -67.792969 C 52.496094 -67.964844 53.652344 -67.886719 54.882812 -67.554688 C 55.835938 -67.296875 56.761719 -66.914062 57.664062 -66.402344 C 58.609375 -65.867188 59.414062 -65.257812 60.082031 -64.566406 C 61.128906 -63.492188 61.753906 -62.316406 61.957031 -61.035156 C 62.1875 -59.570312 61.855469 -58.21875 60.960938 -56.988281 L 57.457031 -59.535156 L 61.230469 -57.410156 C 59.59375 -54.496094 57.898438 -50.628906 56.148438 -45.808594 C 54.476562 -41.207031 52.976562 -36.347656 51.644531 -31.238281 L 47.453125 -32.332031 L 46.25 -36.496094 C 46.871094 -36.675781 47.527344 -36.820312 48.21875 -36.929688 C 49.507812 -37.132812 50.75 -36.976562 51.945312 -36.464844 C 52.898438 -36.054688 53.746094 -35.445312 54.488281 -34.636719 C 55.664062 -33.347656 56.386719 -31.867188 56.652344 -30.1875 C 56.847656 -28.960938 56.730469 -27.847656 56.304688 -26.859375 C 55.871094 -25.851562 55.1875 -25.082031 54.253906 -24.554688 C 53.269531 -23.996094 52.207031 -23.8125 51.066406 -24.003906 L 51.777344 -28.277344 L 52.453125 -23.996094 C 51.828125 -23.898438 50.496094 -23.609375 48.457031 -23.128906 C 47.855469 -22.988281 47.394531 -22.882812 47.074219 -22.808594 L 46.097656 -27.027344 L 50.308594 -26.011719 C 49.351562 -22.046875 48.65625 -18.527344 48.230469 -15.453125 C 47.835938 -12.601562 47.71875 -10.644531 47.886719 -9.585938 L 47.871094 -9.597656 C 47.765625 -9.871094 47.589844 -10.140625 47.351562 -10.398438 C 46.949219 -10.835938 46.457031 -11.144531 45.875 -11.316406 C 45.414062 -11.457031 44.964844 -11.492188 44.527344 -11.425781 C 44.421875 -11.40625 44.339844 -11.390625 44.277344 -11.371094 C 44.292969 -11.375 44.320312 -11.386719 44.359375 -11.402344 C 44.523438 -11.472656 44.707031 -11.570312 44.914062 -11.691406 C 45.382812 -11.96875 45.726562 -12.226562 45.949219 -12.464844 L 48.566406 -15.285156 L 51.675781 -13.023438 C 52.90625 -12.128906 53.652344 -10.859375 53.910156 -9.222656 C 54.136719 -7.796875 53.90625 -6.304688 53.222656 -4.742188 C 52.707031 -3.554688 51.972656 -2.425781 51.019531 -1.347656 C 50.0625 -0.261719 48.988281 0.648438 47.796875 1.390625 C 46.398438 2.257812 44.957031 2.808594 43.476562 3.042969 C 42.0625 3.269531 40.636719 3.203125 39.203125 2.855469 C 37.777344 2.507812 36.464844 1.90625 35.261719 1.054688 C 33.996094 0.15625 32.949219 -0.953125 32.121094 -2.273438 C 31.25 -3.667969 30.675781 -5.214844 30.410156 -6.910156 C 29.835938 -10.542969 30.542969 -16.726562 32.53125 -25.460938 L 36.753906 -24.5 L 37.976562 -20.339844 L 31.785156 -18.523438 L 19.863281 -15.023438 L 18.644531 -19.179688 L 22.460938 -17.128906 C 19.875 -12.320312 17.949219 -8.097656 16.671875 -4.460938 C 16.042969 -2.664062 15.605469 -1.101562 15.363281 0.234375 C 15.15625 1.382812 15.097656 2.257812 15.195312 2.863281 L 15.398438 4.160156 L 14.851562 5.351562 C 14.421875 6.28125 13.773438 7.015625 12.90625 7.550781 C 12.300781 7.921875 11.625 8.167969 10.875 8.285156 Z M 18.96875 -28.527344 C 22.878906 -35.105469 27.15625 -41.402344 31.800781 -47.417969 C 36.664062 -53.71875 41.046875 -58.546875 44.945312 -61.902344 L 47.054688 -63.71875 L 54.167969 -60.445312 L 52.238281 -56.46875 C 50.621094 -53.128906 48.917969 -49.007812 47.132812 -44.117188 C 45.191406 -38.792969 43.59375 -33.746094 42.347656 -28.976562 L 41.695312 -26.472656 L 13.699219 -19.667969 Z M 26.417969 -24.097656 L 22.691406 -26.3125 L 21.667969 -30.523438 L 37.132812 -34.285156 L 38.15625 -30.074219 L 33.964844 -31.167969 C 35.277344 -36.203125 36.953125 -41.507812 38.992188 -47.085938 C 40.878906 -52.253906 42.695312 -56.640625 44.441406 -60.246094 L 48.339844 -58.359375 L 46.527344 -54.421875 L 45.960938 -54.683594 L 47.773438 -58.621094 L 50.597656 -55.335938 C 47.144531 -52.363281 43.167969 -47.957031 38.660156 -42.121094 C 34.230469 -36.382812 30.148438 -30.375 26.417969 -24.097656 Z M 26.417969 -24.097656 "/></g></g></g><g fill="#ef97be" fill-opacity="1"><g transform="translate(14.320489, 102.139619)"><g><path d="M 10.199219 4.003906 C 10.539062 3.949219 10.78125 3.824219 10.914062 3.539062 C 10.210938 -0.910156 13.488281 -9.589844 18.644531 -19.179688 C 24.183594 -20.757812 30.714844 -22.753906 36.753906 -24.5 C 35.097656 -17.21875 34.175781 -10.839844 34.691406 -7.589844 C 35.421875 -2.964844 39.460938 -0.707031 42.800781 -1.234375 C 46.566406 -1.832031 50.011719 -6.148438 49.632812 -8.546875 C 49.578125 -8.886719 49.421875 -9.300781 49.125 -9.519531 C 48.078125 -8.386719 46.144531 -7.292969 45.203125 -7.144531 C 44.347656 -7.007812 43.824219 -7.539062 43.605469 -8.910156 C 43.132812 -11.90625 44.132812 -18.910156 46.097656 -27.027344 C 48.464844 -27.578125 50.40625 -28.0625 51.777344 -28.277344 C 52.320312 -28.1875 52.492188 -28.742188 52.371094 -29.511719 C 52.15625 -30.882812 50.863281 -32.957031 48.894531 -32.648438 C 48.636719 -32.605469 48.121094 -32.527344 47.453125 -32.332031 C 50.074219 -42.398438 53.824219 -53.082031 57.457031 -59.535156 C 57.671875 -59.832031 57.714844 -60.101562 57.675781 -60.359375 C 57.433594 -61.902344 54.058594 -63.824219 52.089844 -63.511719 C 51.660156 -63.445312 51.332031 -63.304688 51.113281 -63.007812 C 50.8125 -62.699219 50.511719 -62.386719 50.152344 -61.890625 C 49.515625 -62.582031 48.308594 -63.003906 46.851562 -62.773438 C 40.175781 -61.71875 23.363281 -41.511719 12.957031 -24.074219 C 8.628906 -23.125 4.71875 -22.332031 1.550781 -21.832031 C 1.40625 -21.632812 1.316406 -21.09375 1.410156 -20.492188 C 1.710938 -18.609375 3.410156 -15.632812 7.519531 -16.28125 C 7.859375 -16.335938 8.289062 -16.402344 8.789062 -16.570312 C 5.574219 -10.269531 3.789062 -4.898438 4.277344 -1.816406 C 4.9375 2.378906 8.484375 4.273438 10.199219 4.003906 Z M 22.691406 -26.3125 C 30.179688 -38.902344 40.28125 -52.171875 47.773438 -58.621094 L 48.339844 -58.359375 C 45.164062 -51.800781 40.835938 -40.324219 38.15625 -30.074219 C 33.601562 -28.914062 28.1875 -27.621094 22.691406 -26.3125 Z M 22.691406 -26.3125 "/></g></g></g></g></g><g transform="matrix(1, 0, 0, 1, 122, 104)"><g clip-path="url(#607c81fda2)"><g fill="#d882a8" fill-opacity="1"><g transform="translate(16.175015, 101.560435)"><g><path d="M 9.648438 0.527344 C 9.363281 0.570312 9.078125 0.683594 8.789062 0.859375 C 8.308594 1.15625 7.949219 1.558594 7.714844 2.066406 L 10.914062 3.539062 L 7.4375 4.089844 C 7.003906 1.355469 7.613281 -2.359375 9.257812 -7.058594 C 10.671875 -11.082031 12.765625 -15.679688 15.542969 -20.847656 L 16.238281 -22.144531 L 29.570312 -26.058594 L 41.519531 -29.566406 L 40.1875 -23.71875 C 39.34375 -20.011719 38.75 -16.800781 38.402344 -14.085938 C 38.050781 -11.355469 37.972656 -9.371094 38.167969 -8.136719 C 38.359375 -6.917969 38.90625 -5.988281 39.804688 -5.355469 C 40.59375 -4.792969 41.410156 -4.582031 42.25 -4.714844 C 42.683594 -4.78125 43.152344 -4.972656 43.652344 -5.28125 C 44.191406 -5.617188 44.683594 -6.039062 45.132812 -6.546875 C 45.539062 -7.007812 45.839844 -7.457031 46.027344 -7.886719 C 46.085938 -8.023438 46.125 -8.132812 46.140625 -8.214844 C 46.132812 -8.175781 46.136719 -8.101562 46.152344 -7.996094 C 46.234375 -7.492188 46.535156 -7.050781 47.054688 -6.671875 L 49.125 -9.519531 L 51.707031 -7.125 C 50.96875 -6.328125 50.039062 -5.597656 48.917969 -4.933594 C 47.742188 -4.234375 46.683594 -3.8125 45.75 -3.664062 C 45.003906 -3.546875 44.289062 -3.59375 43.601562 -3.800781 C 42.816406 -4.039062 42.140625 -4.460938 41.574219 -5.074219 C 40.828125 -5.886719 40.347656 -6.980469 40.128906 -8.359375 C 39.839844 -10.1875 39.945312 -12.910156 40.449219 -16.53125 C 40.914062 -19.863281 41.652344 -23.640625 42.671875 -27.855469 L 43.183594 -29.96875 L 45.300781 -30.457031 C 45.613281 -30.53125 46.066406 -30.636719 46.660156 -30.777344 C 48.890625 -31.300781 50.410156 -31.625 51.226562 -31.753906 L 51.792969 -31.84375 L 52.355469 -31.75 C 51.667969 -31.863281 51.007812 -31.742188 50.378906 -31.386719 C 49.78125 -31.046875 49.351562 -30.574219 49.089844 -29.964844 C 48.917969 -29.5625 48.851562 -29.230469 48.894531 -28.960938 C 48.875 -29.082031 48.808594 -29.207031 48.691406 -29.332031 C 48.710938 -29.3125 48.765625 -29.28125 48.847656 -29.246094 C 49.042969 -29.164062 49.238281 -29.136719 49.441406 -29.167969 C 49.074219 -29.109375 48.734375 -29.039062 48.429688 -28.949219 L 42.484375 -27.234375 L 44.042969 -33.21875 C 45.4375 -38.566406 47.007812 -43.65625 48.765625 -48.492188 C 50.664062 -53.714844 52.535156 -57.972656 54.386719 -61.261719 L 54.488281 -61.441406 L 54.605469 -61.605469 C 54.226562 -61.082031 54.089844 -60.484375 54.199219 -59.808594 C 54.238281 -59.550781 54.316406 -59.328125 54.425781 -59.140625 C 54.445312 -59.109375 54.460938 -59.085938 54.476562 -59.066406 C 54.472656 -59.070312 54.464844 -59.078125 54.453125 -59.089844 C 54.304688 -59.242188 54.085938 -59.402344 53.792969 -59.566406 C 53.46875 -59.75 53.152344 -59.886719 52.84375 -59.96875 C 52.730469 -60 52.636719 -60.015625 52.5625 -60.023438 C 52.550781 -60.023438 52.542969 -60.027344 52.542969 -60.027344 C 52.570312 -60.027344 52.601562 -60.03125 52.636719 -60.035156 C 52.765625 -60.054688 52.914062 -60.109375 53.085938 -60.191406 C 53.433594 -60.363281 53.726562 -60.613281 53.960938 -60.9375 L 53.816406 -60.734375 L 53.640625 -60.554688 C 53.355469 -60.261719 53.140625 -60.015625 53 -59.820312 L 50.472656 -56.347656 L 47.5625 -59.503906 C 47.671875 -59.382812 47.761719 -59.316406 47.828125 -59.296875 C 47.726562 -59.324219 47.585938 -59.324219 47.402344 -59.296875 C 47.046875 -59.238281 46.496094 -58.980469 45.75 -58.523438 C 44.8125 -57.945312 43.730469 -57.128906 42.503906 -56.070312 C 40.003906 -53.910156 37.160156 -50.976562 33.972656 -47.269531 C 30.84375 -43.636719 27.707031 -39.636719 24.558594 -35.269531 C 21.371094 -30.84375 18.511719 -26.507812 15.980469 -22.269531 L 15.199219 -20.957031 L 13.707031 -20.632812 C 8.835938 -19.566406 4.964844 -18.804688 2.101562 -18.351562 L 1.550781 -21.832031 L 4.398438 -19.761719 C 4.679688 -20.148438 4.84375 -20.523438 4.886719 -20.886719 C 4.894531 -20.949219 4.894531 -21.003906 4.890625 -21.042969 C 5.054688 -19.992188 5.75 -19.566406 6.96875 -19.757812 C 7.289062 -19.808594 7.527344 -19.859375 7.675781 -19.910156 L 15.835938 -22.632812 L 11.925781 -14.96875 C 10.363281 -11.910156 9.222656 -9.230469 8.503906 -6.933594 C 7.851562 -4.851562 7.601562 -3.328125 7.753906 -2.367188 C 7.914062 -1.34375 8.351562 -0.542969 9.066406 0.0390625 C 9.320312 0.246094 9.570312 0.390625 9.8125 0.476562 C 9.871094 0.496094 9.910156 0.507812 9.933594 0.511719 C 9.863281 0.503906 9.765625 0.507812 9.648438 0.527344 Z M 10.746094 7.480469 C 9.714844 7.644531 8.625 7.523438 7.476562 7.121094 C 6.460938 6.761719 5.507812 6.222656 4.617188 5.496094 C 3.65625 4.710938 2.851562 3.777344 2.210938 2.695312 C 1.496094 1.488281 1.023438 0.167969 0.796875 -1.265625 C 0.203125 -5.03125 1.820312 -10.664062 5.652344 -18.171875 L 8.789062 -16.570312 L 9.902344 -13.230469 C 9.386719 -13.054688 8.773438 -12.914062 8.066406 -12.804688 C 6.578125 -12.566406 5.183594 -12.640625 3.882812 -13.019531 C 2.660156 -13.378906 1.582031 -13.988281 0.648438 -14.847656 C -0.125 -15.5625 -0.753906 -16.40625 -1.238281 -17.382812 C -1.652344 -18.210938 -1.925781 -19.066406 -2.066406 -19.941406 C -2.164062 -20.554688 -2.175781 -21.152344 -2.101562 -21.738281 C -2 -22.582031 -1.730469 -23.304688 -1.296875 -23.902344 L -0.4375 -25.082031 L 1 -25.308594 C 3.730469 -25.742188 7.464844 -26.476562 12.203125 -27.511719 L 12.957031 -24.074219 L 9.933594 -25.875 C 12.566406 -30.292969 15.539062 -34.796875 18.847656 -39.386719 C 22.113281 -43.917969 25.375 -48.078125 28.632812 -51.863281 C 36.335938 -60.8125 42.226562 -65.605469 46.304688 -66.25 C 47.519531 -66.445312 48.683594 -66.378906 49.789062 -66.058594 C 50.980469 -65.714844 51.964844 -65.121094 52.738281 -64.277344 L 50.152344 -61.890625 L 47.304688 -63.960938 C 47.640625 -64.425781 48.070312 -64.925781 48.589844 -65.460938 L 51.113281 -63.007812 L 48.265625 -65.078125 C 49.03125 -66.128906 50.121094 -66.765625 51.539062 -66.992188 C 52.507812 -67.144531 53.550781 -67.070312 54.671875 -66.769531 C 55.554688 -66.53125 56.421875 -66.171875 57.265625 -65.695312 C 58.140625 -65.199219 58.886719 -64.636719 59.5 -64 C 60.425781 -63.050781 60.980469 -62.019531 61.152344 -60.910156 C 61.351562 -59.664062 61.066406 -58.515625 60.304688 -57.464844 L 57.457031 -59.535156 L 60.523438 -57.808594 C 58.863281 -54.855469 57.148438 -50.949219 55.382812 -46.085938 C 53.703125 -41.457031 52.195312 -36.578125 50.859375 -31.445312 L 47.453125 -32.332031 L 46.476562 -35.714844 C 47.0625 -35.882812 47.6875 -36.023438 48.34375 -36.125 C 49.480469 -36.304688 50.574219 -36.167969 51.625 -35.71875 C 52.472656 -35.355469 53.226562 -34.8125 53.886719 -34.085938 C 54.957031 -32.921875 55.609375 -31.578125 55.851562 -30.0625 C 56.019531 -28.988281 55.921875 -28.027344 55.558594 -27.179688 C 55.195312 -26.339844 54.628906 -25.699219 53.851562 -25.261719 C 53.035156 -24.796875 52.152344 -24.644531 51.199219 -24.804688 L 51.777344 -28.277344 L 52.328125 -24.800781 C 51.683594 -24.699219 50.332031 -24.40625 48.269531 -23.921875 C 47.671875 -23.78125 47.210938 -23.671875 46.890625 -23.597656 L 46.097656 -27.027344 L 49.519531 -26.199219 C 48.554688 -22.210938 47.855469 -18.664062 47.425781 -15.5625 C 47.019531 -12.632812 46.90625 -10.597656 47.085938 -9.460938 C 47.09375 -9.394531 47.105469 -9.339844 47.117188 -9.296875 L 47.113281 -9.304688 C 47.042969 -9.484375 46.921875 -9.664062 46.753906 -9.847656 C 46.449219 -10.175781 46.078125 -10.40625 45.640625 -10.539062 C 45.296875 -10.644531 44.96875 -10.671875 44.652344 -10.621094 C 44.589844 -10.613281 44.546875 -10.601562 44.523438 -10.597656 C 44.5625 -10.609375 44.613281 -10.628906 44.679688 -10.65625 C 44.875 -10.738281 45.089844 -10.851562 45.328125 -10.992188 C 45.863281 -11.308594 46.269531 -11.617188 46.546875 -11.914062 L 48.671875 -14.203125 L 51.195312 -12.367188 C 52.246094 -11.601562 52.886719 -10.511719 53.109375 -9.09375 C 53.308594 -7.828125 53.101562 -6.484375 52.480469 -5.066406 C 51.996094 -3.960938 51.304688 -2.898438 50.410156 -1.882812 C 49.503906 -0.859375 48.492188 0 47.367188 0.699219 C 46.0625 1.511719 44.722656 2.023438 43.351562 2.242188 C 42.042969 2.449219 40.726562 2.390625 39.394531 2.066406 C 38.070312 1.742188 36.851562 1.183594 35.730469 0.390625 C 34.554688 -0.441406 33.578125 -1.472656 32.8125 -2.703125 C 31.996094 -4.007812 31.460938 -5.453125 31.210938 -7.039062 C 30.652344 -10.566406 31.359375 -16.648438 33.320312 -25.28125 L 36.753906 -24.5 L 37.746094 -21.121094 L 31.554688 -19.304688 L 19.636719 -15.800781 L 18.644531 -19.179688 L 21.746094 -17.511719 C 19.140625 -12.667969 17.195312 -8.40625 15.90625 -4.726562 C 14.648438 -1.144531 14.144531 1.425781 14.390625 2.992188 L 14.558594 4.042969 L 14.113281 5.011719 C 13.753906 5.792969 13.207031 6.410156 12.480469 6.855469 C 11.96875 7.171875 11.390625 7.378906 10.746094 7.480469 Z M 19.664062 -28.113281 C 23.5625 -34.664062 27.820312 -40.933594 32.441406 -46.921875 C 37.273438 -53.179688 41.617188 -57.96875 45.476562 -61.289062 L 47.1875 -62.761719 L 53.074219 -60.054688 L 51.507812 -56.824219 C 49.878906 -53.457031 48.164062 -49.3125 46.371094 -44.394531 C 44.417969 -39.046875 42.816406 -33.976562 41.5625 -29.183594 L 41.03125 -27.148438 L 15.382812 -20.914062 Z M 25.71875 -24.511719 L 22.691406 -26.3125 L 21.859375 -29.734375 L 37.324219 -33.496094 L 38.15625 -30.074219 L 34.75 -30.964844 C 36.058594 -35.972656 37.726562 -41.253906 39.753906 -46.808594 C 41.632812 -51.953125 43.4375 -56.3125 45.171875 -59.894531 L 48.339844 -58.359375 L 46.867188 -55.160156 L 46.300781 -55.421875 L 47.773438 -58.621094 L 50.070312 -55.949219 C 46.574219 -52.941406 42.558594 -48.496094 38.015625 -42.617188 C 33.566406 -36.855469 29.46875 -30.820312 25.71875 -24.511719 Z M 25.71875 -24.511719 "/></g></g></g><g fill="#d882a8" fill-opacity="1"><g transform="translate(16.175015, 101.560435)"><g><path d="M 10.199219 4.003906 C 10.539062 3.949219 10.78125 3.824219 10.914062 3.539062 C 10.210938 -0.910156 13.488281 -9.589844 18.644531 -19.179688 C 24.183594 -20.757812 30.714844 -22.753906 36.753906 -24.5 C 35.097656 -17.21875 34.175781 -10.839844 34.691406 -7.589844 C 35.421875 -2.964844 39.460938 -0.707031 42.800781 -1.234375 C 46.566406 -1.832031 50.011719 -6.148438 49.632812 -8.546875 C 49.578125 -8.886719 49.421875 -9.300781 49.125 -9.519531 C 48.078125 -8.386719 46.144531 -7.292969 45.203125 -7.144531 C 44.347656 -7.007812 43.824219 -7.539062 43.605469 -8.910156 C 43.132812 -11.90625 44.132812 -18.910156 46.097656 -27.027344 C 48.464844 -27.578125 50.40625 -28.0625 51.777344 -28.277344 C 52.320312 -28.1875 52.492188 -28.742188 52.371094 -29.511719 C 52.15625 -30.882812 50.863281 -32.957031 48.894531 -32.648438 C 48.636719 -32.605469 48.121094 -32.527344 47.453125 -32.332031 C 50.074219 -42.398438 53.824219 -53.082031 57.457031 -59.535156 C 57.671875 -59.832031 57.714844 -60.101562 57.675781 -60.359375 C 57.433594 -61.902344 54.058594 -63.824219 52.089844 -63.511719 C 51.660156 -63.445312 51.332031 -63.304688 51.113281 -63.007812 C 50.8125 -62.699219 50.511719 -62.386719 50.152344 -61.890625 C 49.515625 -62.582031 48.308594 -63.003906 46.851562 -62.773438 C 40.175781 -61.71875 23.363281 -41.511719 12.957031 -24.074219 C 8.628906 -23.125 4.71875 -22.332031 1.550781 -21.832031 C 1.40625 -21.632812 1.316406 -21.09375 1.410156 -20.492188 C 1.710938 -18.609375 3.410156 -15.632812 7.519531 -16.28125 C 7.859375 -16.335938 8.289062 -16.402344 8.789062 -16.570312 C 5.574219 -10.269531 3.789062 -4.898438 4.277344 -1.816406 C 4.9375 2.378906 8.484375 4.273438 10.199219 4.003906 Z M 22.691406 -26.3125 C 30.179688 -38.902344 40.28125 -52.171875 47.773438 -58.621094 L 48.339844 -58.359375 C 45.164062 -51.800781 40.835938 -40.324219 38.15625 -30.074219 C 33.601562 -28.914062 28.1875 -27.621094 22.691406 -26.3125 Z M 22.691406 -26.3125 "/></g></g></g></g></g><g transform="matrix(1, 0, 0, 1, 138, 158)"><g clip-path="url(#994f9bb5ac)"><g fill="#d882a8" fill-opacity="1"><g transform="translate(16.220393, 93.465077)"><g><path d="M 35.105469 5.511719 C 35.394531 5.464844 35.652344 5.398438 35.875 5.316406 C 35.996094 5.269531 36.0625 5.238281 36.082031 5.222656 C 35.839844 5.414062 35.652344 5.707031 35.519531 6.101562 C 35.261719 6.875 35.351562 7.589844 35.796875 8.253906 L 38.539062 6.417969 L 38.097656 9.691406 C 36.65625 9.496094 35.535156 8.75 34.738281 7.457031 C 34.265625 6.691406 33.933594 5.71875 33.75 4.542969 C 33.449219 2.644531 33.484375 0.0273438 33.859375 -3.308594 C 34.167969 -6.070312 34.675781 -9.132812 35.378906 -12.492188 C 36.023438 -15.554688 36.71875 -18.335938 37.460938 -20.828125 C 38.28125 -23.582031 39.019531 -25.425781 39.675781 -26.367188 L 42.382812 -24.472656 L 39.09375 -24.765625 C 39.105469 -24.921875 39.113281 -25.023438 39.117188 -25.066406 C 39.113281 -25.046875 39.121094 -25.007812 39.128906 -24.945312 C 39.121094 -24.992188 39.074219 -25.078125 38.980469 -25.195312 C 38.820312 -25.414062 38.59375 -25.617188 38.308594 -25.816406 C 38.027344 -26.007812 37.753906 -26.148438 37.484375 -26.234375 C 37.40625 -26.257812 37.347656 -26.273438 37.308594 -26.28125 C 37.371094 -26.273438 37.457031 -26.277344 37.566406 -26.296875 C 37.769531 -26.328125 37.972656 -26.398438 38.183594 -26.515625 C 38.679688 -26.785156 39.054688 -27.191406 39.300781 -27.726562 C 36.058594 -21.015625 32.824219 -15.722656 29.59375 -11.851562 C 25.601562 -7.0625 21.523438 -4.335938 17.359375 -3.679688 C 14.296875 -3.195312 11.773438 -3.8125 9.789062 -5.53125 C 8.058594 -7.027344 6.96875 -9.203125 6.519531 -12.058594 C 5.925781 -15.816406 6.394531 -20.210938 7.921875 -25.238281 C 9.285156 -29.707031 11.308594 -34.171875 14 -38.628906 C 16.671875 -43.058594 19.558594 -46.757812 22.660156 -49.726562 C 26.230469 -53.136719 29.625 -55.097656 32.851562 -55.609375 C 34.929688 -55.9375 36.671875 -55.605469 38.082031 -54.621094 C 39.5625 -53.578125 40.476562 -51.953125 40.828125 -49.738281 C 41.597656 -44.863281 39.542969 -39.308594 34.660156 -33.070312 L 32.0625 -35.105469 L 33.65625 -37.996094 C 33.644531 -38.003906 33.632812 -38.007812 33.625 -38.011719 C 33.625 -38.011719 33.628906 -38.011719 33.632812 -38.007812 C 33.671875 -37.996094 33.726562 -37.988281 33.789062 -37.980469 C 34.003906 -37.960938 34.261719 -37.972656 34.5625 -38.019531 C 35.320312 -38.140625 36.109375 -38.445312 36.9375 -38.941406 C 37.859375 -39.492188 38.664062 -40.183594 39.355469 -41.015625 C 40.9375 -42.933594 41.542969 -45.089844 41.164062 -47.488281 C 40.824219 -49.621094 39.589844 -51.238281 37.453125 -52.347656 C 36.40625 -52.890625 35.242188 -53.257812 33.957031 -53.445312 C 32.675781 -53.636719 31.40625 -53.628906 30.152344 -53.433594 C 27.183594 -52.964844 24.0625 -51.347656 20.789062 -48.582031 C 17.570312 -45.859375 14.625 -42.394531 11.957031 -38.183594 C 9.316406 -34.019531 7.355469 -29.777344 6.078125 -25.460938 C 4.785156 -21.09375 4.394531 -17.308594 4.898438 -14.105469 C 5.140625 -12.589844 5.632812 -11.183594 6.375 -9.890625 C 7.089844 -8.648438 7.984375 -7.597656 9.054688 -6.730469 C 10.113281 -5.882812 11.261719 -5.28125 12.5 -4.929688 C 13.773438 -4.566406 15.0625 -4.488281 16.375 -4.695312 C 18.453125 -5.027344 20.457031 -6.078125 22.378906 -7.859375 C 24.257812 -9.59375 26.175781 -12.128906 28.140625 -15.460938 L 29.292969 -17.414062 L 35.707031 -16.347656 L 34.664062 -12.773438 C 32.34375 -4.84375 31.398438 0.480469 31.828125 3.199219 C 31.992188 4.230469 32.367188 4.910156 32.957031 5.242188 C 33.523438 5.558594 34.238281 5.648438 35.105469 5.511719 Z M 36.136719 12.035156 C 33.761719 12.410156 31.625 12.066406 29.726562 11.003906 C 28.554688 10.347656 27.59375 9.453125 26.84375 8.328125 C 26.066406 7.164062 25.554688 5.796875 25.304688 4.230469 C 24.953125 1.996094 25.136719 -1.023438 25.863281 -4.816406 C 26.375 -7.492188 27.195312 -10.761719 28.324219 -14.628906 L 31.492188 -13.699219 L 30.949219 -10.441406 L 30.445312 -10.527344 L 30.988281 -13.785156 L 33.832031 -12.109375 C 31.539062 -8.21875 29.214844 -5.1875 26.863281 -3.011719 C 23.960938 -0.324219 20.808594 1.289062 17.40625 1.828125 C 15.136719 2.1875 12.898438 2.050781 10.695312 1.425781 C 8.59375 0.828125 6.667969 -0.175781 4.914062 -1.585938 C 3.199219 -2.96875 1.777344 -4.640625 0.648438 -6.597656 C -0.5 -8.597656 -1.257812 -10.757812 -1.625 -13.074219 C -2.285156 -17.261719 -1.828125 -22.015625 -0.253906 -27.335938 C 1.195312 -32.238281 3.40625 -37.035156 6.378906 -41.722656 C 9.40625 -46.5 12.789062 -50.46875 16.527344 -53.625 C 20.738281 -57.183594 24.9375 -59.292969 29.121094 -59.957031 C 31.039062 -60.257812 32.972656 -60.269531 34.917969 -59.980469 C 36.9375 -59.683594 38.796875 -59.09375 40.496094 -58.210938 C 42.378906 -57.234375 43.925781 -55.96875 45.140625 -54.414062 C 46.488281 -52.691406 47.335938 -50.726562 47.6875 -48.519531 C 48.039062 -46.28125 47.894531 -44.105469 47.253906 -41.992188 C 46.679688 -40.105469 45.746094 -38.378906 44.445312 -36.808594 C 43.269531 -35.386719 41.898438 -34.210938 40.324219 -33.269531 C 38.765625 -32.339844 37.1875 -31.75 35.59375 -31.496094 C 33.609375 -31.183594 31.898438 -31.421875 30.464844 -32.214844 L 27.070312 -34.085938 L 29.460938 -37.140625 C 33.160156 -41.867188 34.773438 -45.726562 34.304688 -48.707031 C 34.253906 -49.011719 34.199219 -49.230469 34.128906 -49.359375 C 34.148438 -49.324219 34.203125 -49.273438 34.285156 -49.214844 C 34.367188 -49.15625 34.429688 -49.125 34.472656 -49.117188 C 34.34375 -49.136719 34.148438 -49.125 33.882812 -49.085938 C 32.019531 -48.789062 29.800781 -47.414062 27.226562 -44.953125 C 24.546875 -42.390625 22.023438 -39.144531 19.652344 -35.21875 C 17.246094 -31.230469 15.441406 -27.261719 14.242188 -23.316406 C 13.007812 -19.257812 12.605469 -15.847656 13.042969 -13.089844 C 13.242188 -11.824219 13.597656 -10.96875 14.109375 -10.527344 C 14.550781 -10.148438 15.289062 -10.039062 16.328125 -10.203125 C 18.855469 -10.601562 21.589844 -12.5625 24.523438 -16.082031 C 27.402344 -19.535156 30.328125 -24.339844 33.300781 -30.488281 C 33.664062 -31.277344 34.234375 -31.882812 35.019531 -32.3125 C 35.476562 -32.5625 35.984375 -32.730469 36.535156 -32.820312 C 37.460938 -32.964844 38.460938 -32.863281 39.53125 -32.515625 C 40.402344 -32.230469 41.242188 -31.8125 42.042969 -31.261719 C 42.921875 -30.660156 43.65625 -29.964844 44.25 -29.179688 C 45.003906 -28.179688 45.472656 -27.113281 45.652344 -25.976562 C 45.726562 -25.496094 45.734375 -24.898438 45.671875 -24.183594 L 45.59375 -23.304688 L 45.089844 -22.582031 C 45.019531 -22.484375 44.882812 -22.160156 44.671875 -21.609375 C 44.402344 -20.902344 44.109375 -20.015625 43.792969 -18.945312 C 43.101562 -16.625 42.449219 -14.019531 41.84375 -11.132812 C 41.179688 -7.980469 40.707031 -5.128906 40.421875 -2.574219 C 40.117188 0.171875 40.066406 2.199219 40.273438 3.511719 C 40.304688 3.71875 40.339844 3.886719 40.378906 4.007812 C 40.390625 4.039062 40.394531 4.058594 40.402344 4.066406 C 40.390625 4.046875 40.375 4.019531 40.355469 3.984375 C 40.246094 3.808594 40.089844 3.648438 39.886719 3.503906 C 39.609375 3.308594 39.3125 3.191406 38.984375 3.144531 L 40.460938 3.34375 L 41.285156 4.582031 C 42.042969 5.714844 42.210938 6.917969 41.78125 8.195312 C 41.492188 9.066406 40.941406 9.816406 40.128906 10.445312 C 39.09375 11.246094 37.761719 11.777344 36.136719 12.035156 Z M 36.136719 12.035156 "/></g></g></g><g fill="#d882a8" fill-opacity="1"><g transform="translate(16.220393, 93.465077)"><g><path d="M 35.621094 8.773438 C 37.707031 8.441406 39.1875 7.386719 38.539062 6.417969 C 37.699219 6.304688 37.238281 5.472656 37.011719 4.027344 C 35.933594 -2.796875 40.570312 -21.882812 42.382812 -24.472656 C 42.410156 -24.808594 42.441406 -25.140625 42.390625 -25.460938 C 41.996094 -27.953125 38.660156 -29.8125 37.050781 -29.558594 C 36.730469 -29.507812 36.421875 -29.375 36.300781 -29.109375 C 30.535156 -17.167969 23.910156 -8.058594 16.84375 -6.941406 C 12.589844 -6.269531 10.402344 -8.640625 9.78125 -12.574219 C 7.636719 -26.140625 22.851562 -50.683594 33.367188 -52.347656 C 35.695312 -52.714844 37.148438 -51.875 37.566406 -49.222656 C 38.351562 -44.246094 35.074219 -38.953125 32.0625 -35.105469 C 32.871094 -34.65625 33.953125 -34.582031 35.078125 -34.757812 C 39.65625 -35.480469 45.578125 -40.699219 44.425781 -48.003906 C 43.34375 -54.828125 35.898438 -57.683594 29.636719 -56.695312 C 14.78125 -54.347656 -0.761719 -28.765625 1.636719 -13.589844 C 2.867188 -5.800781 9.585938 -0.28125 16.890625 -1.433594 C 22.671875 -2.347656 27.027344 -7.070312 30.988281 -13.785156 L 31.492188 -13.699219 C 29.675781 -7.488281 27.921875 -0.378906 28.566406 3.714844 C 29.289062 8.292969 32.890625 9.203125 35.621094 8.773438 Z M 35.621094 8.773438 "/></g></g></g></g></g></svg>